<svg width="40" height="40" viewBox="0 0 40 40" fill="none" xmlns="http://www.w3.org/2000/svg">
<path d="M16.8342 10.1093C17.5572 10.8689 16.8342 12.1561 16.3824 12.7047L14.6227 14.3639C13.6717 15.2606 13.3932 16.6831 14.0811 17.7946C16.5127 21.7235 19.8615 24.244 22.2515 25.5434C23.3153 26.1218 24.593 25.7927 25.4306 24.9183C26.1192 24.1995 26.8642 23.4488 27.3564 23.023C28.0763 22.4 28.9902 22.586 29.5568 22.8476C29.7757 22.9487 29.9556 23.1125 30.1187 23.2901C31.3369 24.6171 33.6893 27.1443 35.0381 28.467C36.2468 29.6522 36.0964 30.5367 35.7632 30.98C35.6447 31.1376 35.4886 31.2623 35.352 31.4045C34.8561 31.9209 33.8285 32.9287 32.456 34.1009C30.4549 35.8101 28.8411 36 27.8082 36C26.7754 36 23.0313 35.4936 18.2544 32.0752C13.4775 28.6569 8.70057 23.5294 7.15131 20.6175C5.60204 17.7056 4.50464 15.4267 4.18187 12.7047C3.92366 10.5271 3.79476 10.1093 4.8274 8.40011C5.57355 7.16512 7.8743 5.33627 8.70057 4.47536C9.42022 3.72554 10.4533 4.00973 11.0491 4.33255C11.2094 4.41942 11.3464 4.53958 11.4748 4.66904C13.0879 6.29546 16.1399 9.37976 16.8342 10.1093Z" stroke="black" stroke-width="2"/>
</svg>
